# xmcd
#
# Track frame offsets: 
#        150
#        18540
#        31317
#        47425
#        61875
#        75802
#        92700
#        113335
#        132025
#        150257
#        163055
#
# Disc length: 2428 seconds
#
# Revision: 2
# Processed by: cddbd v1.5.2PL0 Copyright (c) Steve Scherf et al.
# Submitted via: ExactAudioCopy v1.0b4
#
DISCID=6c097a0b
DTITLE=Ron Levy's Wild Kingdom - Safari To New Orleans
DYEAR=1988
DGENRE=Blues
TTITLE0=Stir The Roux With You
TTITLE1=Life Is Like That
TTITLE2=The Fall Guy
TTITLE3=Big Mamou
TTITLE4=Coconut Milk
TTITLE5=Mary Can't Count
TTITLE6=Cool The Fool
TTITLE7=The South Shall Rise Again
TTITLE8=Carry On Our Carrying On
TTITLE9=Nine Pound Hammer
TTITLE10=Everybody's Gotta Cry Sometime
EXTD=
EXTT0=
EXTT1=
EXTT2=
EXTT3=
EXTT4=
EXTT5=
EXTT6=
EXTT7=
EXTT8=
EXTT9=
EXTT10=
PLAYORDER=
